<?xml version="1.0" standalone="no"?>
<!DOCTYPE svg PUBLIC "-//W3C//DTD SVG 20010904//EN"
 "http://www.w3.org/TR/2001/REC-SVG-20010904/DTD/svg10.dtd">
<svg version="1.0" xmlns="http://www.w3.org/2000/svg"
 width="500.000000pt" height="500.000000pt" viewBox="0 0 500.000000 500.000000"
 preserveAspectRatio="xMidYMid meet">
<metadata>
Created by potrace 1.14, written by Peter Selinger 2001-2017
</metadata>
<g transform="translate(0.000000,500.000000) scale(0.100000,-0.100000)"
fill="#000000" stroke="none">
<path d="M2132 4140 c-76 -16 -144 -54 -254 -142 -58 -47 -143 -106 -187 -132
-84 -48 -101 -66 -172 -184 -47 -77 -129 -141 -239 -188 -105 -45 -217 -118
-335 -219 -49 -43 -103 -88 -120 -100 -36 -28 -201 -111 -239 -121 -31 -7 -36
11 -6 21 29 9 24 22 -14 35 -39 13 -66 40 -95 97 -26 53 -26 55 4 43 31 -12
32 -3 1 38 -13 18 -33 59 -45 92 -12 33 -24 60 -26 60 -3 0 -18 -28 -35 -62
-17 -35 -38 -75 -47 -90 -20 -31 -11 -48 17 -30 35 22 22 -7 -24 -53 -29 -29
-57 -46 -80 -50 -20 -4 -36 -10 -36 -14 0 -15 25 -31 47 -31 35 0 28 -13 -32
-69 -56 -50 -56 -50 -30 -57 23 -6 45 -2 124 23 40 12 -85 -88 -132 -106 -39
-14 -48 -21 -34 -26 9 -4 17 -18 17 -31 0 -21 4 -24 25 -18 14 3 25 2 25 -3 0
-13 -87 -73 -108 -74 -26 -1 39 -28 68 -28 14 0 42 6 63 13 42 16 47 9 15 -21
-25 -23 -134 -94 -158 -104 -11 -5 -10 -8 8 -13 17 -6 22 -15 22 -43 0 -29 3
-34 18 -29 10 4 8 -1 -7 -13 l-24 -18 7 -149 c19 -417 107 -729 300 -1068 312
-549 842 -871 1626 -987 195 -29 601 -37 808 -15 686 73 1236 331 1567 737
229 279 404 679 460 1047 20 135 20 152 -4 152 -10 0 -24 7 -31 15 -15 18 -7
19 20 3 33 -21 40 4 40 143 0 120 -1 127 -22 142 l-23 16 24 -6 c23 -6 24 -4
18 25 -5 25 -2 35 13 44 17 11 13 16 -53 54 -70 41 -154 115 -113 100 65 -23
106 -28 142 -16 l37 13 -29 12 c-16 7 -46 27 -68 44 l-39 31 37 0 c29 0 36 4
36 20 0 10 8 24 18 29 16 10 15 10 -3 11 -45 1 -175 83 -175 110 0 4 19 1 42
-7 26 -9 56 -12 77 -8 l34 6 -59 60 c-53 54 -56 59 -34 59 14 0 34 7 44 15 19
14 19 15 0 21 -57 18 -78 30 -105 56 -16 17 -34 38 -39 49 -10 17 -9 18 15 7
38 -17 40 -4 5 47 -17 25 -38 66 -47 90 -8 25 -16 45 -18 45 -7 0 -96 -192
-92 -197 3 -2 15 1 27 7 20 11 20 10 -4 -37 -30 -60 -60 -92 -97 -105 -35 -12
-36 -22 -7 -42 l22 -16 -25 0 c-29 0 -151 57 -212 99 -24 16 -78 61 -120 99
-42 39 -96 79 -120 90 -23 11 -68 32 -100 47 -47 22 -67 39 -112 100 -61 83
-103 112 -213 144 -64 19 -82 30 -145 90 -40 38 -99 86 -132 107 -33 21 -102
78 -153 127 -167 158 -269 205 -419 194 -43 -3 -107 -15 -141 -27 -80 -25
-124 -25 -204 0 -75 24 -176 33 -236 20z m348 -72 c41 0 122 3 180 6 160 9
183 -2 286 -134 108 -139 250 -282 408 -410 71 -58 143 -123 159 -145 16 -22
33 -39 38 -38 4 2 6 -3 3 -11 -3 -7 2 -20 10 -29 8 -8 13 -17 10 -19 -2 -3 2
-11 11 -18 10 -8 15 -9 15 -1 0 6 -4 11 -10 11 -5 0 -9 3 -8 8 1 4 -4 28 -11
54 -7 26 -11 54 -8 62 3 8 -4 22 -15 33 -27 24 -171 193 -164 193 2 0 26 -13
53 -29 26 -17 79 -40 116 -51 71 -23 96 -43 176 -140 37 -44 61 -61 139 -97
67 -32 122 -67 187 -123 112 -94 162 -124 268 -161 91 -32 133 -35 192 -14 21
8 42 12 45 9 10 -11 -92 -94 -128 -104 -20 -5 -62 -10 -92 -10 -52 -1 -54 -2
-35 -16 73 -57 178 -79 234 -49 18 9 35 14 38 11 11 -11 -47 -56 -72 -56 -15
0 -41 -11 -58 -24 -85 -63 -157 -83 -194 -53 -16 11 -17 31 -3 22 6 -4 18 -4
26 -1 12 5 4 17 -33 51 l-48 44 38 1 c20 0 37 1 37 3 0 2 -19 24 -43 49 -33
33 -48 61 -62 109 l-18 64 -15 -53 c-13 -48 -18 -53 -39 -49 -25 5 -28 0 -14
-22 5 -8 16 -11 31 -6 19 6 20 4 12 -12 -6 -10 -19 -27 -31 -37 -24 -22 -20
-36 9 -29 25 7 25 2 0 -27 -17 -20 -23 -21 -51 -11 -44 15 -49 14 -49 -9 0
-11 6 -20 14 -20 8 0 13 -8 12 -17 -1 -13 9 -19 33 -23 30 -4 32 -7 18 -18 -9
-8 -35 -15 -57 -15 -34 -2 -38 -4 -23 -14 17 -13 38 -16 86 -13 26 2 28 0 18
-19 -15 -26 -80 -93 -106 -107 -19 -11 -19 -11 5 -24 13 -7 41 -13 62 -13 21
0 38 -4 38 -9 0 -13 -62 -48 -87 -48 -29 0 -38 -16 -16 -29 16 -9 16 -10 1
-11 -31 0 -73 21 -95 48 -29 35 -28 42 5 43 15 0 36 4 47 8 18 7 17 9 -12 24
-41 21 -55 42 -22 32 20 -7 17 -1 -18 38 -44 48 -57 82 -26 70 13 -5 12 -1 -4
23 -31 43 -37 80 -15 89 13 5 3 12 -37 26 -41 14 -58 16 -65 8 -8 -9 -8 -10 0
-6 7 4 12 -2 12 -17 0 -19 -8 -26 -32 -32 -29 -7 -30 -7 -6 -11 86 -12 89 -14
83 -31 -3 -9 -17 -32 -31 -51 -24 -32 -24 -33 -3 -26 27 8 27 -5 0 -39 -17
-21 -18 -26 -5 -26 9 0 16 -5 16 -10 0 -15 -50 -60 -66 -60 -8 0 -14 -5 -14
-11 0 -8 14 -10 40 -6 37 5 39 4 29 -15 -6 -10 -17 -22 -25 -25 -20 -8 -17
-21 7 -28 32 -10 9 -27 -58 -41 -57 -11 -58 -12 -29 -23 34 -14 33 -16 -15
-25 -28 -5 -42 -2 -60 14 l-24 20 28 -10 c42 -15 43 -13 12 20 -17 18 -23 30
-15 30 9 0 6 8 -8 23 -23 24 -30 43 -12 32 16 -10 12 6 -6 26 -19 21 -26 76
-13 101 5 10 16 14 29 11 11 -3 17 -9 14 -14 -3 -5 2 -6 12 -2 14 5 13 8 -6
18 -19 10 -20 13 -6 18 10 4 15 3 11 -3 -12 -19 10 -9 44 20 39 33 35 45 -16
55 -60 11 -172 67 -247 124 -38 29 -75 50 -82 47 -9 -3 -14 1 -14 12 0 10 -5
23 -12 30 -13 13 3 17 47 13 11 -1 39 -2 62 -2 24 0 45 -5 48 -10 4 -5 22 -9
41 -9 31 0 34 2 34 30 0 17 -6 33 -14 36 -19 7 -29 36 -17 44 14 8 -92 107
-109 102 -7 -3 -10 0 -6 6 7 12 -68 80 -135 122 -40 24 -47 26 -37 10 7 -11
18 -20 24 -20 6 0 23 -10 37 -22 14 -13 36 -30 49 -39 13 -10 20 -20 17 -23
-3 -4 -17 2 -30 12 -13 10 -37 17 -53 17 -15 -1 -30 5 -33 12 -3 7 -11 13 -18
13 -7 0 -15 3 -18 8 -2 4 -3 2 -1 -4 1 -6 -2 -17 -7 -25 -6 -10 -9 -6 -10 16
-1 23 -3 20 -9 -15 -4 -25 -4 -47 -1 -50 3 -3 13 -14 21 -25 14 -19 14 -19 -5
-4 -11 9 -26 14 -34 11 -8 -3 -11 0 -7 7 4 6 3 11 -3 11 -5 0 -11 6 -14 13 -2
6 -3 1 -1 -13 2 -14 4 -47 6 -75 2 -43 0 -50 -17 -53 -30 -4 -152 94 -203 162
-24 34 -54 81 -66 106 l-21 45 -3 -55 c-8 -134 79 -262 225 -330 26 -12 80
-38 120 -57 40 -19 75 -34 78 -34 3 1 15 -8 27 -19 12 -11 29 -18 37 -15 9 3
12 3 9 -1 -4 -3 9 -17 28 -30 38 -26 49 -30 39 -14 -3 6 -2 10 4 10 5 0 12 -6
14 -12 4 -10 6 -10 6 0 1 7 -9 16 -20 21 -14 5 -23 18 -25 34 -1 15 0 27 3 27
6 0 57 -38 89 -67 14 -13 36 -26 49 -29 14 -3 25 -11 25 -16 0 -6 -9 -8 -20
-5 -11 3 -23 1 -26 -5 -3 -5 -12 -7 -19 -4 -8 3 -11 -2 -8 -15 6 -21 -4 -24
-27 -9 -12 8 -12 10 -1 10 8 0 12 3 8 6 -14 14 -27 -7 -17 -27 9 -16 14 -17
32 -8 18 10 24 8 39 -12 9 -12 15 -28 12 -35 -2 -7 1 -15 7 -19 8 -5 7 -11 -2
-23 -11 -13 -10 -15 5 -9 9 4 17 2 17 -4 0 -6 9 -9 19 -6 16 4 18 1 12 -12
-25 -48 -40 -92 -31 -86 16 10 12 -11 -5 -25 -9 -7 -13 -21 -10 -31 3 -9 1
-20 -5 -24 -8 -5 -8 -11 0 -20 8 -9 -6 -21 -59 -49 -81 -42 -116 -46 -127 -13
l-7 22 -10 -22 c-9 -21 -17 -23 -92 -23 -86 0 -146 -15 -194 -49 -45 -32 -478
-251 -496 -251 -18 0 -323 154 -474 240 -90 52 -94 53 -189 57 -74 4 -100 9
-110 22 -13 15 -15 14 -29 -6 -14 -21 -17 -21 -43 -8 -16 8 -53 24 -84 35 -59
23 -76 38 -56 50 8 5 9 13 4 21 -4 8 -9 20 -10 29 -7 44 -27 116 -35 124 -5 5
-12 -2 -18 -17 -6 -14 -19 -35 -31 -47 -15 -15 -16 -20 -5 -20 20 0 1 -46 -32
-77 -21 -20 -22 -23 -5 -32 26 -15 -4 -22 -48 -12 -19 5 -28 10 -20 10 8 1 33
18 55 37 l40 35 -35 -17 c-40 -19 -97 -22 -128 -5 -29 16 -28 31 3 31 14 0 25
3 25 6 0 3 -11 15 -25 26 -35 28 -31 40 10 32 23 -4 35 -2 35 5 0 6 -4 11 -9
11 -13 0 -71 50 -71 61 0 5 7 9 16 9 13 0 12 5 -5 26 -33 42 -27 57 14 33 27
-16 38 -18 52 -9 15 9 14 10 -7 4 -19 -5 -22 -4 -13 6 6 7 24 13 40 14 15 2
38 8 49 14 12 6 24 8 28 5 3 -3 6 0 6 8 0 12 2 12 9 0 8 -12 11 -9 16 12 7 26
25 38 25 16 0 -13 99 -6 109 7 3 5 12 10 19 11 19 4 14 -24 -5 -31 -10 -4 -34
-16 -53 -26 -23 -14 -36 -16 -41 -8 -4 6 -9 3 -13 -9 -3 -11 -24 -30 -46 -42
-22 -12 -40 -25 -40 -28 0 -3 21 8 48 23 26 15 81 45 122 65 104 52 106 54 91
72 -19 24 -24 67 -7 67 8 0 18 -4 21 -10 3 -5 11 -10 16 -10 6 0 7 5 4 10 -3
6 4 10 17 10 l23 0 -25 20 c-14 11 -19 20 -12 20 6 0 12 9 12 19 0 11 7 27 16
35 13 14 13 22 0 14 -2 -2 -14 6 -26 17 -21 19 -22 19 -36 1 -7 -10 -11 -23
-8 -27 3 -5 -3 -6 -12 -2 -13 5 -15 3 -9 -7 5 -8 3 -11 -5 -8 -8 2 -49 -17
-91 -42 -43 -26 -105 -55 -138 -65 -35 -10 -58 -22 -54 -28 3 -6 1 -7 -6 -3
-7 4 -35 2 -63 -5 -45 -10 -53 -10 -63 4 -10 14 -14 11 -29 -19 -9 -20 -26
-38 -36 -41 -26 -7 -26 -23 0 -23 11 0 20 -3 20 -6 0 -17 -43 -74 -61 -79 -10
-4 -17 -11 -13 -16 3 -6 13 -8 23 -5 18 7 -21 -29 -42 -37 -21 -9 15 -28 46
-24 18 2 27 -1 27 -11 0 -24 -56 -70 -93 -77 -21 -4 -37 -11 -37 -15 0 -9 44
-27 80 -33 18 -3 14 -5 -12 -6 -26 -1 -45 6 -64 22 l-27 23 32 13 c41 18 39
31 -4 31 -24 0 -44 9 -67 29 l-32 28 40 0 c22 0 55 8 74 18 l35 18 -32 9 c-28
7 -113 90 -113 111 0 4 20 7 44 7 24 0 51 3 60 6 28 11 17 24 -18 24 -18 0
-38 6 -44 13 -9 11 4 16 63 26 41 7 75 17 75 22 0 6 5 7 10 4 6 -3 10 -1 10 6
0 8 -13 10 -40 6 -32 -4 -39 -3 -31 7 6 7 7 17 3 21 -4 5 -1 5 5 1 7 -4 22 2
35 13 27 26 26 26 -47 -4 -80 -33 -99 -32 -126 7 l-23 31 27 -7 c32 -8 33 -2
7 31 -22 28 -27 59 -8 47 7 -5 9 -2 5 8 -3 9 -11 34 -18 57 -6 22 -15 38 -19
36 -4 -2 -13 -26 -20 -52 -9 -32 -29 -63 -62 -97 -26 -27 -48 -52 -48 -54 0
-2 16 -2 35 0 19 2 35 0 35 -4 0 -4 -22 -25 -49 -47 -51 -39 -54 -51 -17 -51
20 -1 20 -1 -3 -20 -13 -11 -37 -20 -55 -20 -28 -1 -29 -2 -11 -12 10 -6 38
-11 62 -11 47 0 48 -8 3 -27 -38 -16 -105 -1 -170 38 l-45 27 58 9 58 8 -58
39 c-34 23 -70 39 -87 39 -28 0 -66 24 -66 41 0 4 13 1 30 -7 53 -27 113 -18
204 29 l61 32 -70 5 c-82 7 -129 28 -179 77 -42 42 -41 51 3 29 44 -23 98 -20
202 14 112 37 131 48 289 170 175 135 210 157 306 195 46 18 103 44 126 58 73
42 172 141 206 204 37 70 56 88 147 141 39 23 107 74 152 115 81 73 170 128
247 154 29 9 70 11 141 7 55 -4 134 -6 175 -6z m-817 -1175 c-7 -2 -19 -2 -25
0 -7 3 -2 5 12 5 14 0 19 -2 13 -5z m-77 -32 c-3 -4 -22 -8 -43 -9 -27 -2 -34
1 -23 7 8 5 18 7 22 5 4 -3 8 -1 8 4 0 6 9 8 20 5 11 -3 18 -8 16 -12z m39
-101 c-3 -5 -10 -10 -16 -10 -5 0 -9 5 -9 10 0 6 7 10 16 10 8 0 12 -4 9 -10z
m1892 -45 c0 -8 -4 -15 -9 -15 -4 0 -8 7 -8 15 0 8 4 15 8 15 5 0 9 -7 9 -15z
m153 -25 c0 -5 -4 -10 -10 -10 -5 0 -10 5 -10 10 0 6 5 10 10 10 6 0 10 -4 10
-10z m685 -17 l30 -6 -30 -13 c-42 -19 -79 -17 -105 4 l-23 19 49 1 c27 1 63
-1 79 -5z m-3635 -154 c-43 -36 -59 -36 -95 1 l-28 29 74 3 c41 2 76 1 79 0 3
-2 -11 -17 -30 -33z m3678 4 c-18 -18 -41 -33 -53 -33 -12 0 -35 15 -53 33
l-31 32 84 0 84 0 -31 -32z m-98 -89 c0 -13 -37 -1 -47 15 -11 18 -10 18 18 4
16 -8 29 -16 29 -19z m-3540 11 c-7 -8 -20 -15 -29 -15 -13 1 -13 3 3 15 26
19 42 19 26 0z m3245 -51 c-41 -34 -73 -40 -93 -20 -15 15 -14 16 18 16 19 0
49 8 65 19 41 25 47 15 10 -15z m-275 -144 c-29 -23 -31 -23 -66 -10 -34 13
-27 20 33 29 59 9 65 5 33 -19z m-3550 -15 c-13 -14 -30 -25 -38 -25 -8 0 0
11 19 24 44 31 48 32 19 1z m500 -292 c12 -27 33 -60 47 -75 34 -35 15 -36
-26 -2 -26 22 -31 23 -31 8 0 -9 12 -37 26 -61 24 -42 24 -44 5 -33 -33 17
-26 -9 20 -75 31 -44 37 -60 27 -66 -10 -7 -9 -9 4 -9 9 0 20 -4 23 -10 14
-23 -18 -8 -55 26 -26 24 -40 31 -40 21 0 -26 30 -101 56 -140 14 -21 22 -42
19 -47 -4 -6 6 -15 20 -20 29 -11 75 -13 75 -4 0 4 -19 24 -42 45 l-43 38 35
-7 c89 -18 754 3 882 29 80 16 142 19 355 20 252 0 257 0 216 17 -23 9 -45 20
-49 25 -4 4 131 7 299 7 169 0 307 -2 307 -5 0 -4 -19 -15 -42 -25 l-43 -20
260 0 c199 0 275 -4 325 -16 36 -8 119 -17 185 -20 66 -2 237 -9 380 -15 174
-7 276 -7 310 -1 27 6 52 8 55 5 5 -5 -25 -33 -70 -66 -25 -18 -25 -18 30 -12
59 7 84 20 62 34 -9 6 -8 12 7 25 25 23 84 166 68 166 -2 0 -20 -16 -41 -35
-57 -52 -75 -45 -33 13 84 115 112 168 67 127 -29 -26 -33 -15 -10 30 28 56
26 71 -6 46 -43 -33 -45 -25 -9 30 33 48 55 105 55 141 0 9 5 20 10 23 6 3 10
-1 10 -9 0 -25 39 -122 65 -160 26 -39 17 -51 -10 -13 -16 21 -16 21 -10 -23
10 -67 45 -131 89 -160 34 -22 36 -25 18 -28 -12 -2 -30 2 -41 8 -26 14 -28
-2 -5 -56 14 -34 14 -37 1 -25 -9 7 -24 34 -33 59 -10 26 -23 50 -28 54 -6 4
-8 8 -5 8 4 0 -4 29 -17 65 -13 36 -24 78 -24 93 0 15 -4 33 -9 40 -5 8 -11
-46 -14 -130 -3 -81 -12 -167 -21 -198 -19 -66 -19 -67 -4 -52 20 20 31 13 23
-15 -4 -16 -9 -47 -11 -69 -8 -82 -63 -206 -99 -222 -52 -24 -61 -14 -23 25
37 39 49 60 92 156 l25 57 -42 -28 c-23 -16 -55 -32 -71 -36 -26 -6 -27 -6
-12 9 15 16 22 35 11 35 -10 0 -105 -65 -105 -72 0 -13 50 -21 96 -14 l44 6
-15 -31 c-20 -38 -93 -109 -112 -109 -25 0 -60 46 -84 110 -18 49 -24 59 -30
44 -4 -10 -15 -40 -24 -67 -9 -26 -39 -71 -67 -102 -48 -52 -49 -55 -25 -55
35 0 41 -13 17 -35 -11 -10 -20 -28 -20 -40 0 -12 -9 -30 -20 -40 -24 -21 -18
-35 16 -35 30 0 30 -5 2 -47 -26 -37 -66 -50 -100 -32 -24 13 -23 15 35 33 24
8 21 26 -5 26 -12 0 -30 7 -40 17 -17 15 -17 17 -2 35 15 16 15 18 2 18 -21 0
-45 38 -59 94 -6 26 -15 49 -19 51 -9 5 -30 -48 -30 -75 0 -24 -47 -110 -78
-142 l-26 -28 32 0 c36 0 40 -14 14 -47 -21 -27 -81 -63 -104 -63 -10 0 -18
-4 -18 -10 0 -5 7 -10 16 -10 8 0 24 -5 36 -11 20 -11 19 -12 -13 -45 -27 -28
-30 -34 -15 -40 9 -3 28 -4 41 -2 16 3 25 1 25 -7 0 -19 -24 -25 -103 -25
-111 0 -241 -18 -304 -42 -56 -20 -99 -56 -150 -125 -18 -25 -39 -35 -115 -56
-147 -40 -231 -51 -413 -50 -182 0 -311 17 -433 56 -58 19 -72 29 -110 77 -75
94 -170 128 -388 138 -130 6 -149 9 -152 24 -3 15 4 18 37 18 23 0 41 3 41 8
0 4 -14 19 -32 34 -28 23 -31 29 -18 38 8 5 25 10 38 10 35 0 26 16 -17 29
-25 7 -52 26 -70 49 -38 46 -39 52 -1 52 l30 0 -35 45 c-31 41 -75 153 -75
191 0 32 -20 11 -34 -35 -19 -65 -34 -91 -51 -91 -21 0 -28 -19 -15 -35 17
-20 -4 -45 -37 -45 -21 0 -23 -3 -13 -14 6 -8 26 -16 43 -18 l32 -3 -27 -18
c-20 -14 -36 -17 -58 -12 -17 4 -29 9 -26 12 3 3 -6 20 -20 37 -15 16 -22 31
-18 32 5 1 22 5 38 9 29 6 29 6 7 21 -11 8 -21 25 -21 37 0 12 -12 33 -25 46
-32 29 -31 36 2 39 14 1 29 4 31 7 3 2 -14 22 -36 44 -44 43 -75 96 -87 149
-3 17 -10 32 -14 32 -5 0 -18 -27 -30 -60 -12 -33 -33 -68 -47 -79 -24 -19
-28 -19 -55 -5 -25 12 -98 97 -99 114 0 3 23 5 50 4 57 -2 90 4 90 17 0 5 -5
9 -10 9 -6 0 -29 13 -52 30 -50 36 -70 39 -38 5 20 -21 21 -25 6 -25 -22 0
-75 27 -103 53 -13 12 -23 15 -23 8 0 -27 75 -159 113 -198 l41 -43 -27 0
c-15 0 -26 5 -24 11 1 6 -4 14 -12 17 -9 3 -11 0 -6 -8 5 -9 4 -11 -4 -6 -6 4
-9 12 -5 17 3 6 -3 20 -14 32 -34 38 -59 99 -71 174 -16 106 -16 110 11 87 21
-19 21 -19 14 1 -18 47 -35 158 -42 270 l-8 120 -11 -60 c-6 -33 -21 -86 -34
-119 -12 -32 -19 -66 -16 -76 3 -10 1 -48 -6 -85 -9 -55 -18 -73 -49 -106 -20
-21 -43 -39 -50 -39 -8 0 -3 11 13 28 28 29 70 116 82 170 9 45 -1 40 -26 -12
-32 -69 -51 -75 -24 -9 13 32 22 59 20 61 -2 2 -12 -1 -23 -7 -12 -6 -29 -11
-39 -11 -13 0 -8 8 19 30 41 34 72 81 82 123 5 22 4 27 -6 21 -7 -4 -5 2 5 13
27 31 20 34 -20 11 l-38 -22 26 30 c33 36 62 93 80 159 l13 50 8 -42 c4 -24
16 -64 28 -90z m3790 -398 c12 -27 33 -63 48 -78 22 -24 24 -27 7 -21 -53 19
-87 82 -99 184 l-5 45 13 -40 c8 -22 24 -62 36 -90z m-3650 -380 c18 -10 20
-14 8 -15 -23 0 -48 11 -48 21 0 12 11 11 40 -6z m3410 -10 c-7 -8 -24 -15
-39 -15 -25 1 -25 1 -7 15 11 8 29 15 39 15 16 0 17 -3 7 -15z m-2906 -127
c-3 -10 0 -28 7 -40 10 -21 10 -22 -5 -7 -10 9 -19 37 -21 65 -4 47 -4 48 10
24 8 -14 12 -33 9 -42z m2418 5 c12 -12 19 -23 15 -23 -3 0 -15 9 -26 21 l-19
20 -15 -43 -15 -43 3 40 c2 22 4 43 4 46 2 14 33 4 53 -18z m-2386 -30 c-7 -7
-26 7 -26 19 0 6 6 6 15 -2 9 -7 13 -15 11 -17z m-26 -85 c0 -9 12 -29 28 -44
23 -22 24 -24 4 -15 -29 15 -50 49 -57 92 l-6 34 15 -25 c8 -14 15 -33 16 -42z
m2371 15 c-6 -21 -18 -47 -27 -58 -18 -23 -19 -29 13 63 19 52 28 49 14 -5z"/>
<path d="M1556 3400 c-38 -26 -101 -65 -140 -86 -66 -35 -226 -144 -213 -144
3 0 51 11 106 24 109 27 158 54 227 128 52 55 108 128 97 127 -4 -1 -39 -23
-77 -49z"/>
<path d="M2147 3352 c-15 -21 -34 -71 -43 -112 -17 -77 -51 -135 -113 -194
-17 -17 -31 -33 -31 -37 0 -13 45 3 70 26 36 32 111 85 122 85 4 0 8 -6 8 -14
0 -7 16 -31 36 -52 20 -22 44 -55 54 -74 10 -19 32 -48 49 -64 36 -35 39 -46
10 -41 -16 3 -19 0 -14 -15 3 -10 -1 -34 -9 -53 -8 -20 -11 -38 -8 -42 4 -4 0
-5 -8 -3 -8 2 -14 -3 -15 -9 0 -7 -3 -12 -7 -10 -12 4 -77 -66 -71 -76 3 -6 1
-7 -4 -4 -6 4 -27 -14 -46 -39 -34 -43 -36 -44 -47 -25 -6 12 -8 21 -5 21 3 0
1 10 -6 21 -9 17 -13 19 -20 8 -4 -7 -11 -10 -15 -6 -4 3 -1 14 7 24 8 10 -5
2 -28 -17 -24 -19 -43 -40 -43 -47 0 -7 -6 -10 -13 -8 -7 3 -27 -8 -44 -24
-18 -16 -35 -26 -39 -22 -3 3 -5 -15 -3 -40 3 -38 1 -46 -11 -42 -8 2 1 -5 20
-16 19 -11 44 -18 55 -15 14 4 16 2 7 -4 -9 -6 -6 -12 14 -21 15 -6 29 -9 32
-6 3 3 -1 5 -8 5 -7 0 -11 2 -8 5 8 8 39 -6 33 -15 -2 -4 18 -19 44 -34 36
-19 51 -23 54 -14 3 8 6 6 6 -5 1 -11 6 -15 13 -11 6 4 16 0 22 -8 19 -25 64
-50 77 -42 7 4 9 3 6 -3 -7 -11 42 -38 51 -28 3 3 -1 5 -8 5 -7 0 -10 3 -7 6
4 4 13 1 22 -6 12 -10 32 -2 117 44 l103 57 35 -18 c19 -9 41 -17 47 -16 7 0
11 -3 8 -7 -7 -11 20 -20 45 -15 11 2 18 0 15 -6 -4 -5 -12 -7 -18 -3 -7 3 -3
-2 8 -10 11 -9 25 -14 33 -11 7 2 11 1 8 -4 -3 -5 1 -12 10 -15 8 -3 12 -2 9
4 -3 6 1 7 9 4 9 -3 13 -10 10 -15 -3 -5 11 -2 30 8 28 13 33 19 25 30 -8 9
-8 13 0 13 18 0 26 -4 23 -13 -1 -5 29 8 68 29 39 20 67 41 63 47 -3 5 -1 7 5
4 14 -9 43 3 36 15 -3 5 0 8 7 7 8 -2 24 1 36 5 18 6 21 11 14 24 -5 9 -5 26
-1 37 6 17 8 16 14 -12 9 -37 11 -38 46 -17 14 8 17 13 8 10 -10 -3 -18 -1
-18 4 0 6 4 10 9 10 5 0 11 10 13 22 2 14 13 25 28 29 22 6 21 7 -10 8 -20 1
-42 -5 -49 -11 -11 -10 -12 -10 -7 -1 4 8 -3 15 -21 18 -118 26 -254 89 -373
173 -47 34 -90 65 -97 71 -7 6 -19 11 -28 11 -9 0 -14 4 -11 8 2 4 -18 34 -45
66 -52 62 -74 95 -66 103 4 4 49 -6 112 -24 11 -3 -25 28 -80 69 -179 134
-282 269 -273 359 2 22 1 39 -3 39 -3 0 -18 -17 -32 -38z m-207 -798 c0 -8 -4
-12 -10 -9 -5 3 -10 10 -10 16 0 5 5 9 10 9 6 0 10 -7 10 -16z m1100 -48 c0
-11 -19 -15 -25 -6 -3 5 1 10 9 10 9 0 16 -2 16 -4z m-1080 -36 c0 -5 -8 -10
-17 -10 -15 0 -16 2 -3 10 19 12 20 12 20 0z m484 -124 c-3 -9 -10 -13 -15
-10 -5 3 -3 11 4 19 15 16 19 13 11 -9z m386 -36 c0 -5 -5 -10 -11 -10 -5 0
-7 5 -4 10 3 6 8 10 11 10 2 0 4 -4 4 -10z m-66 -26 c5 -14 4 -15 -9 -4 -17
14 -19 20 -6 20 5 0 12 -7 15 -16z"/>
<path d="M3041 3353 c0 -5 4 -17 8 -28 7 -17 8 -17 13 8 4 19 1 27 -8 27 -8 0
-14 -3 -13 -7z"/>
<path d="M3620 3334 c0 -3 7 -12 15 -21 20 -19 32 -9 15 12 -12 15 -30 20 -30
9z"/>
<path d="M3630 3275 c7 -8 17 -12 22 -9 6 4 5 10 -3 15 -22 14 -33 10 -19 -6z"/>
<path d="M3071 3265 c1 -19 18 -51 18 -35 0 8 -4 22 -9 30 -5 8 -9 11 -9 5z"/>
<path d="M3620 3223 c0 -7 5 -13 10 -13 6 0 10 4 10 9 0 5 12 12 28 14 19 3
16 4 -10 4 -24 -1 -38 -6 -38 -14z"/>
<path d="M3695 3197 c-16 -20 -16 -37 -1 -37 10 0 13 -10 10 -40 -3 -38 5 -52
33 -56 18 -3 36 23 29 41 -9 24 10 17 28 -9 8 -14 25 -27 36 -31 11 -3 20 -11
20 -17 0 -6 -9 -8 -22 -4 -37 11 -43 12 -44 1 0 -5 7 -9 17 -7 12 2 17 -1 14
-10 -4 -10 6 -12 42 -10 56 5 84 22 35 22 -31 0 -44 14 -20 22 25 9 -5 30 -34
24 -21 -4 -28 -2 -25 7 2 6 10 11 16 10 13 -4 14 17 1 37 -8 13 -10 13 -10 -1
0 -14 -5 -15 -40 -6 -22 6 -40 15 -40 19 0 4 6 5 13 2 8 -3 20 2 27 11 8 10 9
15 1 15 -6 0 -11 -6 -11 -12 0 -9 -3 -9 -8 -3 -4 6 -18 11 -32 10 -18 0 -24 5
-22 18 3 20 1 21 -13 4z"/>
<path d="M3609 3111 c28 -32 58 -64 68 -72 10 -8 -11 19 -46 59 -35 39 -66 72
-68 72 -3 0 18 -26 46 -59z"/>
<path d="M3865 3110 c3 -5 8 -10 11 -10 2 0 4 5 4 10 0 6 -5 10 -11 10 -5 0
-7 -4 -4 -10z"/>
<path d="M3948 3043 c23 -16 32 -40 10 -27 -7 4 -10 3 -5 -1 8 -9 57 -14 57
-5 0 8 -65 50 -76 49 -5 0 1 -7 14 -16z"/>
<path d="M1444 3026 c-10 -8 -16 -17 -13 -20 3 -3 14 3 24 14 21 23 17 26 -11
6z"/>
<path d="M1706 3003 c-6 -14 -5 -15 5 -6 7 7 10 15 7 18 -3 3 -9 -2 -12 -12z"/>
<path d="M3524 2995 c10 -7 16 -20 13 -27 -2 -7 0 -23 4 -35 5 -13 4 -25 -1
-28 -6 -4 -10 -12 -10 -18 0 -8 3 -7 9 2 5 7 14 10 20 7 6 -4 11 -3 11 3 0 6
7 8 15 5 8 -4 13 -10 10 -14 -3 -4 2 -10 10 -14 8 -3 15 -9 15 -13 0 -13 -62
-33 -74 -25 -6 5 -23 13 -38 19 -21 10 -27 9 -32 -3 -5 -12 -1 -14 15 -9 15 5
19 4 15 -4 -7 -10 -3 -13 27 -15 6 -1 16 -5 20 -11 6 -6 10 -6 14 3 2 6 22 12
43 12 36 0 67 20 53 33 -3 4 1 7 10 7 8 0 17 -5 19 -11 2 -6 16 -9 31 -7 25 3
21 7 -43 45 -72 43 -81 46 -54 19 8 -9 11 -16 5 -16 -5 0 -13 5 -16 10 -3 6
-16 10 -28 10 -18 0 -19 2 -7 10 12 8 9 15 -20 45 -18 19 -39 35 -44 35 -6 0
-3 -7 8 -15z"/>
<path d="M3830 2999 c0 -10 69 -9 75 1 4 6 -11 9 -35 7 -22 -1 -40 -5 -40 -8z"/>
<path d="M3750 2975 c13 -14 26 -25 28 -25 3 0 -5 11 -18 25 -13 14 -26 25
-28 25 -3 0 5 -11 18 -25z"/>
<path d="M3310 2935 c0 -1 12 -10 26 -20 25 -16 25 -16 16 1 -8 14 -42 30 -42
19z"/>
<path d="M1330 2910 c-9 -6 -10 -10 -3 -10 6 0 15 5 18 10 8 12 4 12 -15 0z"/>
<path d="M3480 2890 c-13 -8 -12 -10 3 -10 9 0 17 5 17 10 0 12 -1 12 -20 0z"/>
<path d="M1250 2861 c-8 -6 -17 -8 -21 -5 -4 2 -9 -3 -13 -11 -3 -8 -3 -15 0
-15 9 0 64 30 64 35 0 8 -14 6 -30 -4z"/>
<path d="M1712 2807 c-12 -7 -19 -16 -16 -20 4 -4 -2 -7 -14 -7 -13 0 -22 -6
-22 -15 0 -11 13 -7 50 16 28 17 50 33 50 35 0 8 -25 3 -48 -9z"/>
<path d="M3585 2810 c-3 -5 -1 -10 4 -10 6 0 11 5 11 10 0 6 -2 10 -4 10 -3 0
-8 -4 -11 -10z"/>
<path d="M1130 2800 c0 -5 7 -7 15 -4 8 4 15 8 15 10 0 2 -7 4 -15 4 -8 0 -15
-4 -15 -10z"/>
<path d="M3615 2800 c-3 -5 -2 -10 4 -10 5 0 13 5 16 10 3 6 2 10 -4 10 -5 0
-13 -4 -16 -10z"/>
<path d="M3680 2806 c0 -2 7 -7 16 -10 8 -3 12 -2 9 4 -6 10 -25 14 -25 6z"/>
<path d="M3903 2803 c9 -2 23 -2 30 0 6 3 -1 5 -18 5 -16 0 -22 -2 -12 -5z"/>
<path d="M3650 2790 c0 -5 5 -10 10 -10 6 0 10 5 10 10 0 6 -4 10 -10 10 -5 0
-10 -4 -10 -10z"/>
<path d="M3850 2786 c0 -2 8 -10 18 -17 15 -13 16 -12 3 4 -13 16 -21 21 -21
13z"/>
<path d="M3398 2753 c7 -3 16 -2 19 1 4 3 -2 6 -13 5 -11 0 -14 -3 -6 -6z"/>
<path d="M1789 2723 c-13 -16 -12 -17 4 -4 9 7 17 15 17 17 0 8 -8 3 -21 -13z"/>
<path d="M1824 2678 l-29 -33 33 29 c30 28 37 36 29 36 -2 0 -16 -15 -33 -32z"/>
<path d="M3708 2693 c7 -3 16 -2 19 1 4 3 -2 6 -13 5 -11 0 -14 -3 -6 -6z"/>
<path d="M3420 2669 c0 -3 11 -20 25 -39 14 -19 25 -30 25 -24 -1 10 -50 73
-50 63z"/>
<path d="M1652 2625 c-7 -8 -9 -15 -4 -15 5 0 15 7 22 15 16 19 -1 19 -18 0z"/>
<path d="M1688 2613 c6 -2 18 -2 25 0 6 3 1 5 -13 5 -14 0 -19 -2 -12 -5z"/>
<path d="M3928 2373 c6 -2 18 -2 25 0 6 3 1 5 -13 5 -14 0 -19 -2 -12 -5z"/>
<path d="M725 1650 c3 -5 8 -10 11 -10 2 0 4 5 4 10 0 6 -5 10 -11 10 -5 0 -7
-4 -4 -10z"/>
</g>
</svg>
