<?xml version="1.0" standalone="no"?>
<!DOCTYPE svg PUBLIC "-//W3C//DTD SVG 20010904//EN"
 "http://www.w3.org/TR/2001/REC-SVG-20010904/DTD/svg10.dtd">
<svg version="1.0" xmlns="http://www.w3.org/2000/svg"
 width="500.000000pt" height="500.000000pt" viewBox="0 0 500.000000 500.000000"
 preserveAspectRatio="xMidYMid meet">
<metadata>
Created by potrace 1.14, written by Peter Selinger 2001-2017
</metadata>
<g transform="translate(0.000000,500.000000) scale(0.100000,-0.100000)"
fill="#000000" stroke="none">
<path d="M2170 3936 c-11 -25 -20 -54 -20 -65 0 -12 -7 -21 -15 -21 -23 0 -20
-67 4 -82 14 -9 18 -20 14 -48 -3 -20 2 -57 11 -83 9 -26 16 -69 16 -95 0 -26
5 -63 10 -83 8 -30 7 -44 -10 -80 -26 -57 -25 -93 2 -130 16 -21 22 -42 21
-71 -2 -27 5 -51 18 -70 l20 -28 -22 -65 c-22 -65 -22 -66 -3 -93 16 -23 19
-42 16 -114 l-3 -88 -29 0 c-25 0 -29 -4 -32 -32 -3 -32 -5 -33 -50 -36 l-48
-3 0 -65 c0 -50 -3 -64 -15 -64 -13 0 -15 30 -15 210 l0 210 -85 0 -85 0 0
-60 c0 -53 -2 -60 -20 -60 -18 0 -20 -7 -20 -70 l0 -70 -35 0 -35 0 0 118 c0
134 -14 194 -57 250 -40 52 -83 142 -83 175 0 32 -21 77 -44 96 -11 9 -16 31
-16 69 0 49 -4 60 -27 82 l-28 25 -32 -32 c-29 -28 -33 -39 -33 -84 0 -40 -5
-58 -25 -81 -17 -20 -25 -42 -25 -67 0 -40 -49 -149 -77 -173 -9 -7 -27 -35
-39 -63 -22 -47 -24 -62 -24 -250 0 -110 -3 -244 -7 -297 l-6 -98 -309 0 -308
0 0 -330 0 -330 368 2 367 3 -357 2 -358 3 0 315 0 315 308 2 307 3 5 305 c6
330 8 340 64 407 38 46 76 123 76 156 0 35 22 88 43 106 12 10 17 30 17 70 0
59 11 81 41 81 33 0 49 -29 49 -88 0 -48 4 -61 25 -81 18 -17 25 -34 25 -63 0
-25 9 -52 25 -76 14 -20 25 -43 25 -50 0 -8 12 -28 27 -46 54 -64 63 -99 63
-253 l0 -143 55 0 55 0 0 75 c0 68 2 75 20 75 18 0 20 7 20 60 l0 61 68 -3 67
-3 3 -212 2 -213 30 0 30 0 0 65 0 65 45 0 45 0 0 40 c0 38 1 40 33 40 l32 0
2 104 c1 83 -1 106 -13 110 -19 7 -18 46 5 104 19 47 19 50 2 78 -10 16 -20
53 -23 82 -4 37 -12 60 -29 78 l-24 25 23 62 c13 34 23 67 23 72 0 23 -22 173
-31 213 -6 23 -10 62 -10 86 0 30 -5 46 -15 50 -9 3 -15 18 -15 36 0 23 4 30
20 30 16 0 19 5 14 29 -4 19 0 35 12 49 15 18 19 19 32 6 10 -10 13 -26 9 -50
-5 -29 -3 -34 14 -34 27 0 26 -53 -2 -71 -17 -12 -19 -18 -10 -42 6 -16 11
-47 11 -70 0 -23 8 -77 17 -119 l16 -78 34 0 c32 0 46 21 23 35 -5 3 -10 11
-10 16 0 5 11 2 25 -7 29 -19 45 -12 45 22 0 13 5 24 10 24 6 0 10 -10 10 -23
0 -33 10 -39 35 -23 21 14 22 13 17 -10 -4 -21 -1 -24 29 -25 32 0 33 -1 12
-11 -24 -12 -32 -38 -11 -38 6 0 4 -6 -6 -13 -26 -19 -7 -132 28 -164 14 -13
31 -41 37 -63 7 -21 23 -50 36 -62 l24 -23 19 25 19 25 44 -23 c41 -22 44 -26
36 -50 -5 -15 -11 -39 -14 -54 -3 -15 -19 -41 -35 -58 -19 -19 -30 -41 -30
-59 0 -17 -10 -37 -26 -52 -24 -22 -25 -28 -20 -89 4 -36 9 -81 12 -102 5 -30
2 -37 -15 -43 -19 -6 -21 -14 -21 -76 l0 -70 28 3 c24 3 27 7 30 46 2 28 8 42
18 42 10 0 14 -12 14 -45 0 -41 2 -45 25 -45 l25 0 0 135 0 135 45 0 45 0 0
-134 c0 -122 2 -135 19 -141 42 -13 51 2 51 86 l0 79 35 0 35 0 0 55 c0 42 3
55 15 55 11 0 15 11 15 39 0 22 5 43 10 46 6 3 10 17 10 31 0 20 5 24 30 24
27 0 30 -3 30 -30 0 -16 5 -30 10 -30 6 0 10 -18 10 -40 0 -29 4 -40 15 -40
12 0 15 -13 15 -55 0 -48 2 -55 20 -55 18 0 20 -7 20 -65 l0 -65 45 0 c41 0
45 2 45 25 0 23 4 25 40 25 l40 0 0 -45 0 -45 40 0 c36 0 40 2 40 26 0 33 33
30 38 -4 3 -17 10 -22 33 -22 27 0 29 3 29 35 0 31 3 35 25 35 23 0 25 -4 25
-45 l0 -45 65 0 65 0 0 -55 0 -55 315 0 315 0 -2 -312 -3 -313 -310 -5 -310
-5 318 -3 317 -2 0 331 c0 309 -1 330 -17 328 -10 -1 -149 -1 -310 0 l-292 1
-3 52 -3 53 -67 3 -68 3 0 44 0 45 -40 0 c-39 0 -40 -1 -40 -35 0 -24 -5 -35
-15 -35 -9 0 -15 9 -15 25 0 21 -5 25 -30 25 -25 0 -30 -4 -30 -25 0 -20 -5
-25 -24 -25 -22 0 -25 5 -28 43 l-3 42 -55 0 c-53 0 -55 -1 -58 -27 -3 -22 -9
-28 -28 -28 -23 0 -24 3 -24 70 0 63 -2 70 -20 70 -17 0 -20 7 -20 50 0 36 -4
52 -15 56 -10 4 -15 20 -15 45 0 21 -4 39 -9 39 -5 0 -12 14 -16 30 -4 17 -13
30 -21 30 -10 0 -14 15 -16 58 l-2 57 -3 -54 c-3 -42 -8 -54 -23 -58 -11 -3
-22 -18 -25 -34 -4 -16 -11 -31 -16 -34 -5 -4 -9 -21 -9 -40 0 -20 -6 -35 -15
-39 -11 -4 -15 -20 -15 -56 l0 -50 -35 0 -35 0 0 -85 c0 -69 -3 -85 -15 -85
-13 0 -15 22 -15 135 l0 135 -65 0 -65 0 -2 -137 c-1 -76 -3 -117 -5 -90 -4
46 -5 47 -39 47 -33 0 -34 -1 -34 -40 0 -29 -4 -40 -15 -40 -11 0 -15 12 -15
50 0 40 4 51 21 61 20 10 21 16 14 114 -6 96 -5 105 14 124 11 11 23 36 27 56
3 20 19 49 35 64 15 16 31 41 34 57 3 16 9 41 14 56 10 30 8 33 -56 68 l-43
24 -24 -23 -24 -23 -15 24 c-8 12 -18 36 -21 51 -4 15 -20 42 -36 59 -17 17
-30 36 -31 42 0 6 -3 30 -5 54 -5 41 -4 42 25 42 39 0 41 25 4 38 l-28 9 38
16 c55 24 48 41 -13 34 l-50 -6 15 29 c16 32 20 60 7 60 -5 0 -19 -11 -32 -25
-25 -27 -40 -25 -40 6 0 11 -5 30 -11 41 -15 28 -29 7 -29 -44 0 -21 -2 -38
-6 -38 -3 0 -23 10 -44 22 -47 28 -61 18 -31 -22 20 -28 20 -30 3 -30 -14 0
-21 13 -30 58 -7 32 -12 79 -12 104 0 25 -5 60 -11 78 -10 28 -9 34 5 42 20
11 22 83 3 91 -9 3 -12 16 -10 34 3 17 -1 36 -9 44 -8 8 -17 22 -21 32 -11 28
-25 20 -47 -27z"/>
<path d="M2730 3832 c-68 -34 -97 -110 -65 -172 25 -48 62 -70 116 -70 136 0
177 180 55 240 -52 24 -62 25 -106 2z m116 -18 c72 -48 69 -160 -6 -199 -99
-51 -205 35 -170 139 22 67 116 99 176 60z"/>
<path d="M1447 3253 c-15 -14 -6 -23 24 -23 27 0 30 2 19 15 -13 16 -32 19
-43 8z"/>
<path d="M1523 3253 c-24 -9 -13 -23 18 -23 27 0 30 2 19 15 -13 16 -17 17
-37 8z"/>
<path d="M1440 3186 c0 -22 4 -26 31 -26 26 0 30 3 27 23 -2 16 -11 23 -30 25
-24 3 -28 0 -28 -22z"/>
<path d="M1510 3185 c0 -21 5 -25 30 -25 25 0 30 4 30 25 0 21 -5 25 -30 25
-25 0 -30 -4 -30 -25z"/>
<path d="M1440 3114 c0 -22 4 -25 28 -22 19 2 28 9 30 26 3 19 -1 22 -27 22
-27 0 -31 -4 -31 -26z"/>
<path d="M1510 3115 c0 -21 5 -25 30 -25 25 0 30 4 30 25 0 21 -5 25 -30 25
-25 0 -30 -4 -30 -25z"/>
<path d="M1440 3040 c0 -28 3 -31 28 -28 21 2 27 8 27 28 0 20 -6 26 -27 28
-25 3 -28 0 -28 -28z"/>
<path d="M1510 3046 c0 -16 7 -27 20 -31 27 -9 40 1 40 31 0 20 -5 24 -30 24
-25 0 -30 -4 -30 -24z"/>
<path d="M1440 2964 c0 -22 4 -25 28 -22 19 2 28 9 30 26 3 19 -1 22 -27 22
-27 0 -31 -4 -31 -26z"/>
<path d="M1510 2965 c0 -21 5 -25 30 -25 25 0 30 4 30 25 0 21 -5 25 -30 25
-25 0 -30 -4 -30 -25z"/>
<path d="M1332 2943 c2 -22 8 -28 28 -28 20 0 26 6 28 28 3 24 0 27 -28 27
-28 0 -31 -3 -28 -27z"/>
<path d="M1620 2939 c0 -27 3 -30 28 -27 21 2 28 9 30 31 3 24 0 27 -27 27
-28 0 -31 -3 -31 -31z"/>
<path d="M1440 2890 c0 -28 3 -31 28 -28 21 2 27 8 27 28 0 20 -6 26 -27 28
-25 3 -28 0 -28 -28z"/>
<path d="M1510 2889 c0 -27 3 -30 28 -27 21 2 28 9 30 31 3 24 0 27 -27 27
-28 0 -31 -3 -31 -31z"/>
<path d="M1330 2860 c0 -27 3 -30 30 -30 27 0 30 3 30 30 0 27 -3 30 -30 30
-27 0 -30 -3 -30 -30z"/>
<path d="M1620 2860 c0 -27 3 -30 30 -30 27 0 30 3 30 30 0 27 -3 30 -30 30
-27 0 -30 -3 -30 -30z"/>
<path d="M1920 2860 c0 -27 3 -30 30 -30 27 0 30 3 30 30 0 27 -3 30 -30 30
-27 0 -30 -3 -30 -30z"/>
<path d="M1440 2815 c0 -23 4 -26 28 -23 19 2 27 9 27 23 0 14 -8 21 -27 23
-24 3 -28 0 -28 -23z"/>
<path d="M1510 2815 c0 -21 5 -25 30 -25 25 0 30 4 30 25 0 21 -5 25 -30 25
-25 0 -30 -4 -30 -25z"/>
<path d="M1330 2780 c0 -27 3 -30 30 -30 27 0 30 3 30 30 0 27 -3 30 -30 30
-27 0 -30 -3 -30 -30z"/>
<path d="M1620 2780 c0 -27 3 -30 30 -30 27 0 30 3 30 30 0 27 -3 30 -30 30
-27 0 -30 -3 -30 -30z"/>
<path d="M1920 2780 c0 -27 3 -30 30 -30 27 0 30 3 30 30 0 27 -3 30 -30 30
-27 0 -30 -3 -30 -30z"/>
<path d="M2997 2803 c-4 -3 -7 -17 -7 -30 0 -19 5 -23 30 -23 27 0 30 3 30 30
0 25 -4 30 -23 30 -13 0 -27 -3 -30 -7z"/>
<path d="M1440 2740 c0 -28 3 -31 28 -28 21 2 27 8 27 28 0 20 -6 26 -27 28
-25 3 -28 0 -28 -28z"/>
<path d="M1510 2740 c0 -28 3 -31 28 -28 21 2 27 8 27 28 0 20 -6 26 -27 28
-25 3 -28 0 -28 -28z"/>
<path d="M1337 2723 c-4 -3 -7 -17 -7 -30 0 -19 5 -23 30 -23 27 0 30 3 30 30
0 25 -4 30 -23 30 -13 0 -27 -3 -30 -7z"/>
<path d="M1620 2701 c0 -28 3 -31 31 -31 27 0 30 3 27 28 -2 21 -9 28 -30 30
-25 3 -28 0 -28 -27z"/>
<path d="M1920 2701 c0 -28 3 -31 31 -31 27 0 30 3 27 28 -2 21 -9 28 -30 30
-25 3 -28 0 -28 -27z"/>
<path d="M2997 2723 c-4 -3 -7 -17 -7 -30 0 -19 5 -23 30 -23 27 0 30 3 30 30
0 25 -4 30 -23 30 -13 0 -27 -3 -30 -7z"/>
<path d="M2740 2690 c0 -27 3 -30 30 -30 27 0 30 3 30 30 0 27 -3 30 -30 30
-27 0 -30 -3 -30 -30z"/>
<path d="M1440 2666 c0 -22 4 -26 31 -26 26 0 30 3 27 23 -2 16 -11 23 -30 25
-24 3 -28 0 -28 -22z"/>
<path d="M1510 2665 c0 -21 5 -25 30 -25 25 0 30 4 30 25 0 21 -5 25 -30 25
-25 0 -30 -4 -30 -25z"/>
<path d="M1332 2613 c2 -22 8 -28 28 -28 20 0 26 6 28 28 3 24 0 27 -28 27
-28 0 -31 -3 -28 -27z"/>
<path d="M1620 2609 c0 -27 3 -30 28 -27 21 2 28 9 30 31 3 24 0 27 -27 27
-28 0 -31 -3 -31 -31z"/>
<path d="M1920 2609 c0 -27 3 -30 28 -27 21 2 28 9 30 31 3 24 0 27 -27 27
-28 0 -31 -3 -31 -31z"/>
<path d="M2212 2613 c2 -22 8 -28 28 -28 20 0 26 6 28 28 3 24 0 27 -28 27
-28 0 -31 -3 -28 -27z"/>
<path d="M2740 2611 c0 -28 3 -31 31 -31 27 0 30 3 27 28 -2 21 -9 28 -30 30
-25 3 -28 0 -28 -27z"/>
<path d="M2992 2613 c2 -22 9 -29 31 -31 24 -3 27 0 27 27 0 28 -3 31 -31 31
-27 0 -30 -3 -27 -27z"/>
<path d="M1440 2590 c0 -28 3 -31 28 -28 21 2 27 8 27 28 0 20 -6 26 -27 28
-25 3 -28 0 -28 -28z"/>
<path d="M1517 2614 c-4 -4 -7 -18 -7 -31 0 -19 5 -23 31 -23 27 0 30 3 27 28
-3 26 -34 43 -51 26z"/>
<path d="M1330 2530 c0 -27 3 -30 30 -30 27 0 30 3 30 30 0 27 -3 30 -30 30
-27 0 -30 -3 -30 -30z"/>
<path d="M1620 2530 c0 -27 3 -30 30 -30 27 0 30 3 30 30 0 27 -3 30 -30 30
-27 0 -30 -3 -30 -30z"/>
<path d="M1720 2530 c0 -27 3 -30 30 -30 27 0 30 3 30 30 0 27 -3 30 -30 30
-27 0 -30 -3 -30 -30z"/>
<path d="M1820 2530 c0 -27 3 -30 30 -30 27 0 30 3 30 30 0 27 -3 30 -30 30
-27 0 -30 -3 -30 -30z"/>
<path d="M1920 2530 c0 -27 3 -30 30 -30 27 0 30 3 30 30 0 27 -3 30 -30 30
-27 0 -30 -3 -30 -30z"/>
<path d="M2120 2530 c0 -28 3 -31 28 -28 21 2 27 8 27 28 0 20 -6 26 -27 28
-25 3 -28 0 -28 -28z"/>
<path d="M2210 2530 c0 -27 3 -30 30 -30 27 0 30 3 30 30 0 27 -3 30 -30 30
-27 0 -30 -3 -30 -30z"/>
<path d="M2300 2530 c0 -25 4 -30 25 -30 21 0 25 5 25 30 0 25 -4 30 -25 30
-21 0 -25 -5 -25 -30z"/>
<path d="M2380 2530 c0 -27 3 -30 30 -30 27 0 30 3 30 30 0 27 -3 30 -30 30
-27 0 -30 -3 -30 -30z"/>
<path d="M2470 2530 c0 -27 3 -30 30 -30 27 0 30 3 30 30 0 27 -3 30 -30 30
-27 0 -30 -3 -30 -30z"/>
<path d="M2900 2530 c0 -27 3 -30 30 -30 27 0 30 3 30 30 0 27 -3 30 -30 30
-27 0 -30 -3 -30 -30z"/>
<path d="M2994 2545 c-10 -25 4 -45 31 -45 21 0 25 5 25 30 0 25 -4 30 -25 30
-14 0 -28 -7 -31 -15z"/>
<path d="M3080 2530 c0 -25 4 -30 25 -30 21 0 25 5 25 30 0 25 -4 30 -25 30
-21 0 -25 -5 -25 -30z"/>
<path d="M2740 2519 c0 -27 3 -30 28 -27 21 2 28 9 30 31 3 24 0 27 -27 27
-28 0 -31 -3 -31 -31z"/>
<path d="M1440 2516 c0 -22 4 -26 31 -26 26 0 30 3 27 23 -2 16 -11 23 -30 25
-24 3 -28 0 -28 -22z"/>
<path d="M1510 2515 c0 -21 5 -25 30 -25 25 0 30 4 30 25 0 21 -5 25 -30 25
-25 0 -30 -4 -30 -25z"/>
<path d="M1337 2473 c-4 -3 -7 -17 -7 -30 0 -19 5 -23 30 -23 27 0 30 3 30 30
0 25 -4 30 -23 30 -13 0 -27 -3 -30 -7z"/>
<path d="M1620 2451 c0 -28 3 -31 31 -31 27 0 30 3 27 28 -2 21 -9 28 -30 30
-25 3 -28 0 -28 -27z"/>
<path d="M1720 2451 c0 -28 3 -31 31 -31 27 0 30 3 27 28 -2 21 -9 28 -30 30
-25 3 -28 0 -28 -27z"/>
<path d="M1820 2450 c0 -27 3 -30 30 -30 27 0 30 3 30 30 0 27 -3 30 -30 30
-27 0 -30 -3 -30 -30z"/>
<path d="M1920 2451 c0 -28 3 -31 31 -31 27 0 30 3 27 28 -2 21 -9 28 -30 30
-25 3 -28 0 -28 -27z"/>
<path d="M2030 2451 c0 -28 3 -31 31 -31 27 0 30 3 27 28 -2 21 -9 28 -30 30
-25 3 -28 0 -28 -27z"/>
<path d="M2120 2450 c0 -25 4 -30 24 -30 16 0 27 7 31 20 9 27 -1 40 -31 40
-20 0 -24 -5 -24 -30z"/>
<path d="M2210 2451 c0 -28 3 -31 31 -31 27 0 30 3 27 28 -2 21 -9 28 -30 30
-25 3 -28 0 -28 -27z"/>
<path d="M2300 2450 c0 -25 4 -30 25 -30 21 0 25 5 25 30 0 25 -4 30 -25 30
-21 0 -25 -5 -25 -30z"/>
<path d="M2387 2473 c-4 -3 -7 -17 -7 -30 0 -19 5 -23 30 -23 27 0 30 3 30 30
0 25 -4 30 -23 30 -13 0 -27 -3 -30 -7z"/>
<path d="M2470 2451 c0 -28 3 -31 31 -31 27 0 30 3 27 28 -2 21 -9 28 -30 30
-25 3 -28 0 -28 -27z"/>
<path d="M2907 2473 c-4 -3 -7 -17 -7 -30 0 -19 5 -23 30 -23 27 0 30 3 30 30
0 25 -4 30 -23 30 -13 0 -27 -3 -30 -7z"/>
<path d="M2997 2473 c-4 -3 -7 -17 -7 -30 0 -19 5 -23 30 -23 27 0 30 3 30 30
0 25 -4 30 -23 30 -13 0 -27 -3 -30 -7z"/>
<path d="M3080 2450 c0 -25 4 -30 25 -30 21 0 25 5 25 30 0 25 -4 30 -25 30
-21 0 -25 -5 -25 -30z"/>
<path d="M3157 2473 c-4 -3 -7 -17 -7 -30 0 -19 5 -23 30 -23 27 0 30 3 30 30
0 25 -4 30 -23 30 -13 0 -27 -3 -30 -7z"/>
<path d="M3230 2450 c0 -27 3 -30 30 -30 27 0 30 3 30 30 0 27 -3 30 -30 30
-27 0 -30 -3 -30 -30z"/>
<path d="M1440 2434 c0 -22 4 -25 27 -22 18 2 27 10 29 26 3 19 -1 22 -26 22
-26 0 -30 -4 -30 -26z"/>
<path d="M1510 2435 c0 -21 5 -25 30 -25 25 0 30 4 30 25 0 21 -5 25 -30 25
-25 0 -30 -4 -30 -25z"/>
<path d="M1332 2363 c2 -22 8 -28 28 -28 20 0 26 6 28 28 3 24 0 27 -28 27
-28 0 -31 -3 -28 -27z"/>
<path d="M1440 2366 c0 -22 4 -26 31 -26 26 0 30 3 27 23 -2 16 -11 23 -30 25
-24 3 -28 0 -28 -22z"/>
<path d="M1510 2365 c0 -21 5 -25 30 -25 25 0 30 4 30 25 0 21 -5 25 -30 25
-25 0 -30 -4 -30 -25z"/>
<path d="M1620 2359 c0 -27 3 -30 28 -27 21 2 28 9 30 31 3 24 0 27 -27 27
-28 0 -31 -3 -31 -31z"/>
<path d="M1720 2359 c0 -27 3 -30 28 -27 21 2 28 9 30 31 3 24 0 27 -27 27
-28 0 -31 -3 -31 -31z"/>
<path d="M1820 2359 c0 -27 3 -30 28 -27 21 2 28 9 30 31 3 24 0 27 -27 27
-28 0 -31 -3 -31 -31z"/>
<path d="M1920 2359 c0 -27 3 -30 28 -27 21 2 28 9 30 31 3 24 0 27 -27 27
-28 0 -31 -3 -31 -31z"/>
<path d="M2030 2359 c0 -27 3 -30 28 -27 21 2 28 9 30 31 3 24 0 27 -27 27
-28 0 -31 -3 -31 -31z"/>
<path d="M2120 2359 c0 -27 3 -30 27 -27 22 2 27 8 28 31 2 23 -2 27 -27 27
-25 0 -28 -4 -28 -31z"/>
<path d="M2212 2363 c2 -22 8 -28 28 -28 20 0 26 6 28 28 3 24 0 27 -28 27
-28 0 -31 -3 -28 -27z"/>
<path d="M2300 2360 c0 -25 4 -30 25 -30 21 0 25 5 25 30 0 25 -4 30 -25 30
-21 0 -25 -5 -25 -30z"/>
<path d="M2382 2363 c2 -22 8 -28 28 -28 20 0 26 6 28 28 3 24 0 27 -28 27
-28 0 -31 -3 -28 -27z"/>
<path d="M2470 2359 c0 -27 3 -30 28 -27 21 2 28 9 30 31 3 24 0 27 -27 27
-28 0 -31 -3 -31 -31z"/>
<path d="M2560 2360 c0 -25 4 -30 25 -30 21 0 25 5 25 30 0 25 -4 30 -25 30
-21 0 -25 -5 -25 -30z"/>
<path d="M2642 2363 c2 -22 9 -29 31 -31 24 -3 27 0 27 27 0 28 -3 31 -31 31
-27 0 -30 -3 -27 -27z"/>
<path d="M2732 2363 c2 -22 9 -29 31 -31 24 -3 27 0 27 27 0 28 -3 31 -31 31
-27 0 -30 -3 -27 -27z"/>
<path d="M2820 2359 c0 -27 3 -30 28 -27 21 2 28 9 30 31 3 24 0 27 -27 27
-28 0 -31 -3 -31 -31z"/>
<path d="M2902 2363 c2 -22 8 -28 28 -28 20 0 26 6 28 28 3 24 0 27 -28 27
-28 0 -31 -3 -28 -27z"/>
<path d="M2992 2363 c2 -22 9 -29 31 -31 24 -3 27 0 27 27 0 28 -3 31 -31 31
-27 0 -30 -3 -27 -27z"/>
<path d="M3078 2365 c-6 -30 -2 -35 29 -35 19 0 23 5 23 30 0 25 -4 30 -24 30
-17 0 -25 -7 -28 -25z"/>
<path d="M3152 2363 c2 -22 9 -29 31 -31 24 -3 27 0 27 27 0 28 -3 31 -31 31
-27 0 -30 -3 -27 -27z"/>
<path d="M3232 2363 c2 -22 8 -28 28 -28 20 0 26 6 28 28 3 24 0 27 -28 27
-28 0 -31 -3 -28 -27z"/>
<path d="M3312 2363 c2 -22 8 -28 28 -28 20 0 26 6 28 28 3 24 0 27 -28 27
-28 0 -31 -3 -28 -27z"/>
<path d="M3390 2359 c0 -27 3 -30 28 -27 21 2 28 9 30 31 3 24 0 27 -27 27
-28 0 -31 -3 -31 -31z"/>
<path d="M3470 2359 c0 -27 3 -30 28 -27 21 2 28 9 30 31 3 24 0 27 -27 27
-28 0 -31 -3 -31 -31z"/>
<path d="M3550 2360 c0 -25 4 -30 25 -30 21 0 25 5 25 30 0 25 -4 30 -25 30
-21 0 -25 -5 -25 -30z"/>
<path d="M1355 2187 c-12 -10 -14 -16 -7 -21 7 -4 12 -24 12 -46 l0 -38 -40 5
c-34 5 -43 2 -70 -25 -39 -40 -41 -91 -5 -128 24 -23 30 -25 98 -20 39 3 74 5
76 5 3 1 -3 7 -13 14 -16 12 -17 27 -14 140 3 131 0 140 -37 114z m-11 -120
c14 -10 17 -25 14 -72 -3 -55 -5 -60 -31 -69 -41 -15 -62 11 -62 75 0 39 5 54
19 65 24 17 37 18 60 1z"/>
<path d="M3257 2180 c-14 -12 -32 -40 -39 -63 -7 -23 -17 -45 -23 -49 -6 -5
-6 -8 3 -8 16 0 17 -121 0 -138 -9 -9 -1 -12 38 -12 38 1 45 3 32 11 -14 8
-18 24 -18 74 0 63 1 65 26 65 14 0 23 4 19 10 -3 6 -15 10 -26 10 -15 0 -19
7 -19 39 0 44 15 61 53 58 32 -3 37 17 4 21 -13 2 -35 -7 -50 -18z"/>
<path d="M2068 2178 c21 -11 22 -17 22 -128 0 -111 -1 -118 -22 -128 -19 -10
-2 -11 83 -9 117 3 144 13 180 70 25 39 21 106 -8 146 -35 47 -78 61 -183 60
-76 0 -90 -3 -72 -11z m172 -13 c59 -30 79 -128 40 -192 -23 -38 -83 -59 -124
-43 -26 9 -26 10 -26 118 0 71 4 112 12 120 17 17 63 15 98 -3z"/>
<path d="M2498 2180 c21 -9 22 -14 22 -128 0 -113 -1 -119 -22 -130 -19 -9
-10 -11 47 -11 57 0 66 2 48 11 -20 9 -23 19 -23 65 0 29 4 53 9 53 5 0 30
-24 55 -52 41 -48 44 -54 29 -65 -14 -11 -5 -13 51 -13 42 0 65 4 61 10 -3 6
-12 10 -18 10 -7 0 -43 31 -80 68 l-67 68 47 46 c27 26 62 54 78 62 l30 16
-55 0 c-44 -1 -51 -3 -36 -11 17 -10 14 -16 -35 -65 -29 -30 -57 -54 -61 -54
-4 0 -8 25 -8 55 0 48 3 57 23 65 16 6 4 9 -48 9 -52 0 -64 -3 -47 -9z"/>
<path d="M1020 2067 c-25 -61 -56 -122 -69 -134 l-24 -23 54 0 c51 0 52 1 32
15 -20 14 -21 18 -9 53 12 35 16 37 58 40 45 3 45 3 57 -39 12 -38 11 -44 -5
-56 -15 -11 -9 -13 47 -13 53 1 61 3 44 12 -25 15 -42 37 -50 66 -17 65 -68
192 -78 192 -7 0 -32 -51 -57 -113z m63 18 l16 -45 -35 0 c-32 0 -35 2 -28 23
13 41 23 67 28 67 2 0 11 -20 19 -45z"/>
<path d="M1466 2069 c-20 -16 -25 -24 -16 -33 8 -8 16 -5 29 13 22 28 55 25
59 -6 3 -18 -6 -27 -43 -45 -44 -22 -65 -53 -51 -77 8 -12 144 -12 152 0 3 5
-2 9 -10 9 -13 0 -16 13 -16 68 0 40 -5 73 -12 80 -19 19 -63 14 -92 -9z m66
-109 c-3 -24 -9 -30 -28 -30 -16 0 -24 6 -24 18 0 22 19 42 40 42 13 0 15 -7
12 -30z"/>
<path d="M1641 2076 c-15 -8 -20 -16 -12 -20 15 -10 14 -119 -1 -134 -9 -9 -2
-12 32 -12 34 0 41 3 32 12 -7 7 -12 38 -12 69 0 62 15 85 50 74 17 -5 20 -15
20 -69 0 -35 -5 -67 -12 -74 -9 -9 -2 -12 32 -12 34 0 41 3 32 12 -7 7 -12 39
-12 74 0 52 3 64 19 69 33 10 50 -5 57 -50 4 -30 1 -53 -9 -74 l-15 -31 45 0
c44 0 45 1 30 18 -12 13 -17 36 -17 75 0 78 -34 107 -92 76 -15 -8 -27 -8 -45
2 -18 10 -31 10 -54 2 -16 -6 -29 -7 -29 -2 0 12 -10 11 -39 -5z"/>
<path d="M2828 2074 c-16 -8 -28 -21 -28 -29 0 -23 28 -18 35 6 10 31 49 22
53 -13 3 -22 -2 -28 -31 -37 -47 -16 -74 -47 -61 -69 9 -13 27 -17 83 -18 39
-1 74 2 77 7 3 5 -2 9 -10 9 -18 0 -18 3 -16 76 2 78 -37 104 -102 68z m58
-130 c-4 -9 -15 -14 -28 -12 -31 4 -30 39 2 55 22 11 25 10 28 -8 2 -11 1 -27
-2 -35z"/>
<path d="M2980 2081 c-21 -6 -22 -8 -7 -14 14 -5 17 -19 17 -70 0 -36 5 -68
12 -75 15 -15 75 -16 84 -1 5 8 9 8 14 -1 6 -9 15 -10 36 -2 16 6 23 11 17 11
-9 1 -13 23 -13 75 0 41 -4 77 -8 80 -5 3 -22 2 -37 -3 -23 -6 -26 -9 -12 -14
13 -5 17 -19 17 -66 0 -57 -1 -61 -27 -67 -38 -10 -53 16 -53 93 0 35 -3 63
-7 62 -5 -1 -19 -4 -33 -8z"/>
<path d="M3340 2075 c-14 -8 -19 -14 -12 -15 16 0 17 -121 0 -138 -9 -9 -2
-12 32 -12 34 0 41 3 32 12 -7 7 -12 38 -12 70 0 46 4 59 19 68 25 13 27 13
45 -6 22 -21 21 -102 -1 -126 -15 -17 -14 -18 25 -18 40 0 54 11 32 25 -5 3
-10 31 -10 61 0 48 3 56 25 66 39 17 55 -3 55 -71 0 -31 -5 -62 -12 -69 -9 -9
-3 -12 31 -12 42 0 42 0 27 22 -10 14 -16 44 -16 78 0 31 -5 61 -12 68 -15 15
-53 16 -78 2 -13 -7 -27 -6 -45 2 -20 9 -34 9 -56 1 -16 -6 -29 -7 -29 -2 0
12 -11 11 -40 -6z"/>
<path d="M3688 2074 c-16 -8 -28 -21 -28 -29 0 -23 27 -18 33 6 8 32 51 22 55
-13 3 -22 -2 -28 -31 -37 -47 -16 -74 -47 -60 -69 8 -13 26 -17 77 -18 64 -1
92 8 61 20 -11 4 -15 22 -15 69 0 86 -27 107 -92 71z m60 -111 c-2 -22 -9 -29
-30 -31 -22 -3 -28 1 -28 15 0 24 19 43 43 43 14 0 18 -6 15 -27z"/>
<path d="M3850 2075 c-14 -8 -19 -14 -12 -15 16 0 17 -121 0 -138 -9 -9 -2
-12 32 -12 34 0 41 3 32 12 -7 7 -12 38 -12 70 0 46 4 59 19 68 11 5 26 7 34
4 30 -11 37 -106 10 -136 -15 -17 -14 -18 32 -18 46 0 47 1 32 18 -12 13 -17
36 -17 75 0 77 -34 107 -91 77 -13 -7 -19 -7 -19 0 0 13 -10 12 -40 -5z"/>
<path d="M2892 1720 c0 -14 2 -19 5 -12 2 6 2 18 0 25 -3 6 -5 1 -5 -13z"/>
<path d="M2151 1714 c0 -11 3 -14 6 -6 3 7 2 16 -1 19 -3 4 -6 -2 -5 -13z"/>
<path d="M3393 1695 c0 -22 2 -30 4 -17 2 12 2 30 0 40 -3 9 -5 -1 -4 -23z"/>
<path d="M2362 1695 c0 -16 2 -22 5 -12 2 9 2 23 0 30 -3 6 -5 -1 -5 -18z"/>
<path d="M2622 1690 c0 -19 2 -27 5 -17 2 9 2 25 0 35 -3 9 -5 1 -5 -18z"/>
<path d="M1791 1694 c0 -11 3 -14 6 -6 3 7 2 16 -1 19 -3 4 -6 -2 -5 -13z"/>
<path d="M2271 1694 c0 -11 3 -14 6 -6 3 7 2 16 -1 19 -3 4 -6 -2 -5 -13z"/>
<path d="M2721 1694 c0 -11 3 -14 6 -6 3 7 2 16 -1 19 -3 4 -6 -2 -5 -13z"/>
<path d="M2562 1680 c0 -14 2 -19 5 -12 2 6 2 18 0 25 -3 6 -5 1 -5 -13z"/>
<path d="M1972 1510 c0 -14 2 -19 5 -12 2 6 2 18 0 25 -3 6 -5 1 -5 -13z"/>
<path d="M2812 1460 c0 -19 2 -27 5 -17 2 9 2 25 0 35 -3 9 -5 1 -5 -18z"/>
<path d="M2182 1460 c0 -14 2 -19 5 -12 2 6 2 18 0 25 -3 6 -5 1 -5 -13z"/>
<path d="M2391 1454 c0 -11 3 -14 6 -6 3 7 2 16 -1 19 -3 4 -6 -2 -5 -13z"/>
<path d="M3051 1454 c0 -11 3 -14 6 -6 3 7 2 16 -1 19 -3 4 -6 -2 -5 -13z"/>
<path d="M2982 1405 c0 -16 2 -22 5 -12 2 9 2 23 0 30 -3 6 -5 -1 -5 -18z"/>
</g>
</svg>
